# Made in Blockbench 4.1.3
mtllib asteroid.mtl

o sphere
v 0 -0.03125 0
v 0 0.03125 0
v 0 0.02209708691207961 0.022097086912079608
v 0 1.9135106236677394e-18 0.03125
v 0 -0.022097086912079608 0.02209708691207961
v 0.015624999999999997 0.02209708691207961 0.015625
v 0.022097086912079608 1.9135106236677394e-18 0.02209708691207961
v 0.015625 -0.022097086912079608 0.015625000000000003
v 0.022097086912079608 0.02209708691207961 1.353056337867958e-18
v 0.03125 1.9135106236677394e-18 1.9135106236677394e-18
v 0.02209708691207961 -0.022097086912079608 1.3530563378679585e-18
v 0.015625 0.02209708691207961 -0.015624999999999997
v 0.02209708691207961 1.9135106236677394e-18 -0.022097086912079608
v 0.015625000000000003 -0.022097086912079608 -0.015625
v 2.706112675735916e-18 0.02209708691207961 -0.022097086912079608
v 3.827021247335479e-18 1.9135106236677394e-18 -0.03125
v 2.706112675735917e-18 -0.022097086912079608 -0.02209708691207961
v -0.015624999999999997 0.02209708691207961 -0.015625000000000003
v -0.022097086912079608 1.9135106236677394e-18 -0.022097086912079615
v -0.015625 -0.022097086912079608 -0.015625000000000003
v -0.022097086912079608 0.02209708691207961 -4.0591690136038744e-18
v -0.03125 1.9135106236677394e-18 -5.740531871003218e-18
v -0.02209708691207961 -0.022097086912079608 -4.059169013603875e-18
v -0.015625000000000003 0.02209708691207961 0.015624999999999995
v -0.022097086912079615 1.9135106236677394e-18 0.022097086912079605
v -0.015625000000000003 -0.022097086912079608 0.015624999999999997
vt 0.0169125 0.977625
vt 0 0.977625
vt 0.00845625 1
vt 0.0204125 1
vt 0.0239125 0.9763375
vt 0 0.9763375
vt 0.0034999999999999996 1
vt 0.0239125 1
vt 0.0204125 0.9763375
vt 0.0034999999999999996 0.9763375
vt 0 1
vt 0 1
vt 0.0169125 1
vt 0.00845625 0.977625
vt 0.0169125 0.977625
vt 0 0.977625
vt 0.00845625 1
vt 0.0204125 1
vt 0.0239125 0.9763375
vt 0 0.9763375
vt 0.0034999999999999996 1
vt 0.0239125 1
vt 0.0204125 0.9763375
vt 0.0034999999999999996 0.9763375
vt 0 1
vt 0 1
vt 0.0169125 1
vt 0.00845625 0.977625
vt 0.0169125 0.977625
vt 0 0.977625
vt 0.00845625 1
vt 0.0204125 1
vt 0.0239125 0.9763375
vt 0 0.9763375
vt 0.0034999999999999996 1
vt 0.0239125 1
vt 0.0204125 0.9763375
vt 0.0034999999999999996 0.9763375
vt 0 1
vt 0 1
vt 0.0169125 1
vt 0.00845625 0.977625
vt 0.0169125 0.977625
vt 0 0.977625
vt 0.00845625 1
vt 0.0204125 1
vt 0.0239125 0.9763375
vt 0 0.9763375
vt 0.0034999999999999996 1
vt 0.0239125 1
vt 0.0204125 0.9763375
vt 0.0034999999999999996 0.9763375
vt 0 1
vt 0 1
vt 0.0169125 1
vt 0.00845625 0.977625
vt 0.0169125 0.977625
vt 0 0.977625
vt 0.00845625 1
vt 0.0204125 1
vt 0.0239125 0.9763375
vt 0 0.9763375
vt 0.0034999999999999996 1
vt 0.0239125 1
vt 0.0204125 0.9763375
vt 0.0034999999999999996 0.9763375
vt 0 1
vt 0 1
vt 0.0169125 1
vt 0.00845625 0.977625
vt 0.0169125 0.977625
vt 0 0.977625
vt 0.00845625 1
vt 0.0204125 1
vt 0.0239125 0.9763375
vt 0 0.9763375
vt 0.0034999999999999996 1
vt 0.0239125 1
vt 0.0204125 0.9763375
vt 0.0034999999999999996 0.9763375
vt 0 1
vt 0 1
vt 0.0169125 1
vt 0.00845625 0.977625
vt 0.0169125 0.977625
vt 0 0.977625
vt 0.00845625 1
vt 0.0204125 1
vt 0.0239125 0.9763375
vt 0 0.9763375
vt 0.0034999999999999996 1
vt 0.0239125 1
vt 0.0204125 0.9763375
vt 0.0034999999999999996 0.9763375
vt 0 1
vt 0 1
vt 0.0169125 1
vt 0.00845625 0.977625
vt 0.0169125 0.977625
vt 0 0.977625
vt 0.00845625 1
vt 0.0204125 1
vt 0.0239125 0.9763375
vt 0 0.9763375
vt 0.0034999999999999996 1
vt 0.0239125 1
vt 0.0204125 0.9763375
vt 0.0034999999999999996 0.9763375
vt 0 1
vt 0 1
vt 0.0169125 1
vt 0.00845625 0.977625
vn 0.1565580108156215 0.9124869568340762 0.3779644730092273
vn 0.3574067443365932 0.35740674433659336 0.8628562094610168
vn 0.3574067443365932 -0.3574067443365932 0.8628562094610168
vn 0.1565580108156215 -0.912486956834076 0.3779644730092273
vn 0.3779644730092272 0.9124869568340761 0.1565580108156216
vn 0.8628562094610169 0.35740674433659336 0.3574067443365933
vn 0.8628562094610168 -0.35740674433659314 0.3574067443365933
vn 0.3779644730092273 -0.912486956834076 0.15655801081562157
vn 0.3779644730092273 0.9124869568340762 -0.1565580108156215
vn 0.8628562094610168 0.35740674433659336 -0.3574067443365932
vn 0.862856209461017 -0.35740674433659325 -0.3574067443365932
vn 0.3779644730092273 -0.912486956834076 -0.1565580108156215
vn 0.15655801081562162 0.9124869568340762 -0.3779644730092273
vn 0.3574067443365933 0.35740674433659336 -0.8628562094610169
vn 0.35740674433659336 -0.3574067443365932 -0.8628562094610168
vn 0.1565580108156216 -0.912486956834076 -0.3779644730092273
vn -0.15655801081562143 0.9124869568340762 -0.3779644730092273
vn -0.35740674433659303 0.35740674433659336 -0.862856209461017
vn -0.3574067443365932 -0.3574067443365932 -0.8628562094610169
vn -0.1565580108156215 -0.912486956834076 -0.3779644730092273
vn -0.3779644730092273 0.9124869568340762 -0.1565580108156216
vn -0.8628562094610169 0.35740674433659336 -0.3574067443365933
vn -0.8628562094610168 -0.3574067443365932 -0.3574067443365933
vn -0.3779644730092273 -0.912486956834076 -0.1565580108156216
vn -0.3779644730092273 0.9124869568340762 0.15655801081562146
vn -0.8628562094610168 0.35740674433659336 0.3574067443365931
vn -0.862856209461017 -0.35740674433659325 0.35740674433659325
vn -0.37796447300922736 -0.912486956834076 0.15655801081562154
vn -0.1565580108156216 0.9124869568340762 0.37796447300922725
vn -0.35740674433659353 0.3574067443365934 0.8628562094610168
vn -0.35740674433659353 -0.35740674433659325 0.8628562094610169
vn -0.15655801081562165 -0.912486956834076 0.3779644730092273
usemtl none
f 3/1/1 6/2/1 2/3/1
f 3/4/2 4/5/2 7/6/2 6/7/2
f 4/8/3 5/9/3 8/10/3 7/11/3
f 8/12/4 5/13/4 1/14/4
f 6/15/5 9/16/5 2/17/5
f 6/18/6 7/19/6 10/20/6 9/21/6
f 7/22/7 8/23/7 11/24/7 10/25/7
f 11/26/8 8/27/8 1/28/8
f 9/29/9 12/30/9 2/31/9
f 9/32/10 10/33/10 13/34/10 12/35/10
f 10/36/11 11/37/11 14/38/11 13/39/11
f 14/40/12 11/41/12 1/42/12
f 12/43/13 15/44/13 2/45/13
f 12/46/14 13/47/14 16/48/14 15/49/14
f 13/50/15 14/51/15 17/52/15 16/53/15
f 17/54/16 14/55/16 1/56/16
f 15/57/17 18/58/17 2/59/17
f 15/60/18 16/61/18 19/62/18 18/63/18
f 16/64/19 17/65/19 20/66/19 19/67/19
f 20/68/20 17/69/20 1/70/20
f 18/71/21 21/72/21 2/73/21
f 18/74/22 19/75/22 22/76/22 21/77/22
f 19/78/23 20/79/23 23/80/23 22/81/23
f 23/82/24 20/83/24 1/84/24
f 21/85/25 24/86/25 2/87/25
f 21/88/26 22/89/26 25/90/26 24/91/26
f 22/92/27 23/93/27 26/94/27 25/95/27
f 26/96/28 23/97/28 1/98/28
f 24/99/29 3/100/29 2/101/29
f 24/102/30 25/103/30 4/104/30 3/105/30
f 25/106/31 26/107/31 5/108/31 4/109/31
f 5/110/32 26/111/32 1/112/32