# Made in Blockbench 4.1.3
mtllib gate.mtl

o tube
v 0 0.5 0.06250000000000011
v 0 0.5 -0.06249999999999989
v 0 0.4375 0.0625000000000001
v 0 0.4375 -0.0624999999999999
v 0.24999999999999997 0.43301270189221935 0.0625000000000001
v 0.24999999999999997 0.43301270189221935 -0.0624999999999999
v 0.21874999999999997 0.37888611415569196 0.06250000000000008
v 0.21874999999999997 0.37888611415569196 -0.06249999999999992
v 0.4330127018922193 0.25000000000000006 0.06250000000000006
v 0.4330127018922193 0.25000000000000006 -0.062499999999999944
v 0.3788861141556919 0.21875000000000006 0.06250000000000006
v 0.3788861141556919 0.21875000000000006 -0.06249999999999995
v 0.5 1.6738382170869373e-17 0.0625
v 0.5 4.449395778649829e-17 -0.0625
v 0.4375 1.2911360923533894e-17 0.0625
v 0.4375 4.066693653916281e-17 -0.0625
v 0.43301270189221935 -0.2499999999999999 0.062499999999999944
v 0.43301270189221935 -0.2499999999999999 -0.06250000000000006
v 0.37888611415569196 -0.2187499999999999 0.06249999999999995
v 0.37888611415569196 -0.2187499999999999 -0.06250000000000004
v 0.24999999999999997 -0.43301270189221935 0.0624999999999999
v 0.24999999999999997 -0.43301270189221935 -0.0625000000000001
v 0.21874999999999997 -0.37888611415569196 0.06249999999999992
v 0.21874999999999997 -0.37888611415569196 -0.06250000000000008
v 6.123233995736766e-17 -0.5 0.06249999999999989
v 6.123233995736766e-17 -0.5 -0.06250000000000011
v 5.35782974626967e-17 -0.4375 0.0624999999999999
v 5.35782974626967e-17 -0.4375 -0.0625000000000001
v -0.25000000000000006 -0.4330127018922193 0.0624999999999999
v -0.25000000000000006 -0.4330127018922193 -0.0625000000000001
v -0.21875000000000006 -0.3788861141556919 0.06249999999999992
v -0.21875000000000006 -0.3788861141556919 -0.06250000000000008
v -0.43301270189221924 -0.2500000000000002 0.062499999999999944
v -0.43301270189221924 -0.2500000000000002 -0.06250000000000006
v -0.37888611415569184 -0.21875000000000022 0.06249999999999995
v -0.37888611415569184 -0.21875000000000017 -0.06250000000000006
v -0.5 -1.0572629774386594e-16 0.0625
v -0.5 -7.797072212823703e-17 -0.0625
v -0.4375 -9.424523400185951e-17 0.0625
v -0.4375 -6.64896583862306e-17 -0.0625
v -0.4330127018922193 0.25000000000000006 0.06250000000000006
v -0.4330127018922193 0.25000000000000006 -0.062499999999999944
v -0.3788861141556919 0.21875000000000006 0.06250000000000006
v -0.3788861141556919 0.21875000000000006 -0.06249999999999995
v -0.2500000000000002 0.4330127018922192 0.0625000000000001
v -0.2500000000000002 0.4330127018922192 -0.0624999999999999
v -0.2187500000000002 0.3788861141556918 0.06250000000000008
v -0.2187500000000002 0.3788861141556918 -0.06249999999999992
vt 0.258825 0.5
vt 0 0.5
vt 0 1
vt 0.258825 1
vt 0 1
vt 0.2264625 1
vt 0.2264625 0.5
vt 0 0.5
vt 0.25 0.9375
vt 0.03125 0.8788875
vt 0 0.9330125
vt 0.25 1
vt 0.25 0.8788875
vt 0 0.945875
vt 0.03125 1
vt 0.25 0.9413875
vt 0.258825 0.5
vt 0 0.5
vt 0 1
vt 0.258825 1
vt 0 1
vt 0.2264625 1
vt 0.2264625 0.5
vt 0 0.5
vt 0.24264369196416383 0.9396307585561985
vt 0.016175067619642325 0.9396307585561985
vt 0 1
vt 0.25881875958380607 1
vt 5.551115123125783e-17 0.7411812404161939
vt 0 1
vt 0.06036924144380157 0.9838249323803577
vt 0.06036924144380157 0.7573563080358362
vt 0.258825 0.5
vt 0 0.5
vt 0 1
vt 0.258825 1
vt 0 1
vt 0.2264625 1
vt 0.2264625 0.5
vt 0 0.5
vt 0.12111250000000001 0.96875
vt 0.0625 0.75
vt 0 0.75
vt 0.06698749999999998 1
vt 0.06698749999999998 0.75
vt 0 1
vt 0.0625 1
vt 0.12111250000000001 0.78125
vt 0.258825 0.5
vt 0 0.5
vt 0 1
vt 0.258825 1
vt 0 1
vt 0.2264625 1
vt 0.2264625 0.5
vt 0 0.5
vt 0.0625 1
vt 0.12111250000000001 0.78125
vt 0.06698749999999998 0.75
vt 0 1
vt 0 0.75
vt 0.06698749999999998 1
vt 0.12111250000000001 0.96875
vt 0.0625 0.75
vt 0.258825 0.5
vt 0 0.5
vt 0 1
vt 0.258825 1
vt 0 1
vt 0.2264625 1
vt 0.2264625 0.5
vt 0 0.5
vt 0.06036924144380157 0.9838249323803577
vt 0.06036924144380157 0.7573563080358362
vt 5.551115123125783e-17 0.7411812404161939
vt 0 1
vt 0 1
vt 0.25881875958380607 1
vt 0.24264369196416383 0.9396307585561985
vt 0.016175067619642325 0.9396307585561985
vt 0.258825 0.5
vt 0 0.5
vt 0 1
vt 0.258825 1
vt 0 1
vt 0.2264625 1
vt 0.2264625 0.5
vt 0 0.5
vt 0.03125 1
vt 0.25 0.9413875
vt 0.25 0.8788875
vt 0 0.945875
vt 0 0.9330125
vt 0.25 1
vt 0.25 0.9375
vt 0.03125 0.8788875
vt 0.258825 0.5
vt 0 0.5
vt 0 1
vt 0.258825 1
vt 0 1
vt 0.2264625 1
vt 0.2264625 0.5
vt 0 0.5
vt 0 0.9413875
vt 0.21875 1
vt 0.25 0.945875
vt 0 0.8788875
vt 0 1
vt 0.25 0.9330125
vt 0.21875 0.8788875
vt 0 0.9375
vt 0.258825 0.5
vt 0 0.5
vt 0 1
vt 0.258825 1
vt 0 1
vt 0.2264625 1
vt 0.2264625 0.5
vt 0 0.5
vt 0.01617506761964227 1
vt 0.24264369196416377 1
vt 0.25881875958380607 0.9396307585561985
vt 0 0.9396307585561985
vt 0.06036924144380151 1
vt 0.06036924144380157 0.7411812404161939
vt 0 0.7573563080358362
vt 0 0.9838249323803576
vt 0.258825 0.5
vt 0 0.5
vt 0 1
vt 0.258825 1
vt 0 1
vt 0.2264625 1
vt 0.2264625 0.5
vt 0 0.5
vt 0 0.78125
vt 0.05861250000000001 1
vt 0.12111250000000001 1
vt 0.054125000000000034 0.75
vt 0.054125000000000034 1
vt 0.12111250000000001 0.75
vt 0.05861250000000001 0.75
vt 0 0.96875
vt 0.258825 0.5
vt 0 0.5
vt 0 1
vt 0.258825 1
vt 0 1
vt 0.2264625 1
vt 0.2264625 0.5
vt 0 0.5
vt 0.05861250000000001 0.75
vt 0 0.96875
vt 0.054125000000000034 1
vt 0.12111250000000001 0.75
vt 0.12111250000000001 1
vt 0.054125000000000034 0.75
vt 0 0.78125
vt 0.05861250000000001 1
vt 0.258825 0.5
vt 0 0.5
vt 0 1
vt 0.258825 1
vt 0 1
vt 0.2264625 1
vt 0.2264625 0.5
vt 0 0.5
vt 0 0.7573563080358362
vt 0 0.9838249323803576
vt 0.06036924144380151 1
vt 0.06036924144380157 0.7411812404161939
vt 0.25881875958380607 0.9396307585561985
vt 0 0.9396307585561985
vt 0.01617506761964227 1
vt 0.24264369196416377 1
vt 0.258825 0.5
vt 0 0.5
vt 0 1
vt 0.258825 1
vt 0 1
vt 0.2264625 1
vt 0.2264625 0.5
vt 0 0.5
vt 0.21875 0.8788875
vt 0 0.9375
vt 0 1
vt 0.25 0.9330125
vt 0.25 0.945875
vt 0 0.8788875
vt 0 0.9413875
vt 0.21875 1
vn 0.2588190451025207 0.9659258262890683 2.144786184852406e-16
vn -0.25881904510252063 -0.9659258262890684 -2.1447861848524062e-16
vn 0 -2.220446049250313e-16 1
vn 0 2.220446049250313e-16 -1
vn 0.7071067811865475 0.7071067811865476 1.5700924586837752e-16
vn -0.7071067811865475 -0.7071067811865476 -1.5700924586837752e-16
vn 0 -2.220446049250313e-16 1
vn 0 2.220446049250313e-16 -1
vn 0.9659258262890682 0.25881904510252085 5.74693726168631e-17
vn -0.9659258262890683 -0.25881904510252074 -5.746937261686308e-17
vn 0 -2.220446049250313e-16 1
vn 0 2.220446049250313e-16 -1
vn 0.9659258262890683 -0.25881904510252074 -5.746937261686308e-17
vn -0.9659258262890683 0.2588190451025207 5.746937261686306e-17
vn 0 -2.220446049250313e-16 1
vn 0 2.220446049250313e-16 -1
vn 0.7071067811865477 -0.7071067811865474 -1.5700924586837747e-16
vn -0.7071067811865477 0.7071067811865474 1.5700924586837747e-16
vn 0 -2.220446049250313e-16 1
vn 0 2.220446049250313e-16 -1
vn 0.25881904510252074 -0.9659258262890683 -2.144786184852406e-16
vn -0.2588190451025207 0.9659258262890683 2.144786184852406e-16
vn 0 -2.220446049250313e-16 1
vn 0 2.220446049250313e-16 -1
vn -0.2588190451025208 -0.9659258262890684 -2.1447861848524062e-16
vn 0.2588190451025207 0.9659258262890683 2.144786184852406e-16
vn 0 -2.220446049250313e-16 1
vn 0 2.220446049250313e-16 -1
vn -0.7071067811865474 -0.7071067811865478 -1.5700924586837757e-16
vn 0.7071067811865474 0.7071067811865478 1.5700924586837757e-16
vn 0 -2.220446049250313e-16 1
vn 0 2.220446049250313e-16 -1
vn -0.9659258262890682 -0.2588190451025209 -5.746937261686311e-17
vn 0.9659258262890683 0.2588190451025209 5.746937261686311e-17
vn 0 -2.220446049250313e-16 1
vn 0 2.220446049250313e-16 -1
vn -0.9659258262890684 0.25881904510252074 5.746937261686308e-17
vn 0.9659258262890683 -0.25881904510252063 -5.746937261686305e-17
vn 0 -2.220446049250313e-16 1
vn 0 2.220446049250313e-16 -1
vn -0.7071067811865477 0.7071067811865475 1.570092458683775e-16
vn 0.7071067811865476 -0.7071067811865475 -1.570092458683775e-16
vn 0 -2.220446049250313e-16 1
vn 0 2.220446049250313e-16 -1
vn -0.258819045102521 0.9659258262890682 2.1447861848524057e-16
vn 0.2588190451025211 -0.9659258262890683 -2.144786184852406e-16
vn 0 -2.220446049250313e-16 1
vn 0 2.220446049250313e-16 -1
usemtl none
f 1/1/1 5/2/1 6/3/1 2/4/1
f 4/5/2 8/6/2 7/7/2 3/8/2
f 3/9/3 7/10/3 5/11/3 1/12/3
f 2/13/4 6/14/4 8/15/4 4/16/4
f 5/17/5 9/18/5 10/19/5 6/20/5
f 8/21/6 12/22/6 11/23/6 7/24/6
f 7/25/7 11/26/7 9/27/7 5/28/7
f 6/29/8 10/30/8 12/31/8 8/32/8
f 9/33/9 13/34/9 14/35/9 10/36/9
f 12/37/10 16/38/10 15/39/10 11/40/10
f 11/41/11 15/42/11 13/43/11 9/44/11
f 10/45/12 14/46/12 16/47/12 12/48/12
f 13/49/13 17/50/13 18/51/13 14/52/13
f 16/53/14 20/54/14 19/55/14 15/56/14
f 15/57/15 19/58/15 17/59/15 13/60/15
f 14/61/16 18/62/16 20/63/16 16/64/16
f 17/65/17 21/66/17 22/67/17 18/68/17
f 20/69/18 24/70/18 23/71/18 19/72/18
f 19/73/19 23/74/19 21/75/19 17/76/19
f 18/77/20 22/78/20 24/79/20 20/80/20
f 21/81/21 25/82/21 26/83/21 22/84/21
f 24/85/22 28/86/22 27/87/22 23/88/22
f 23/89/23 27/90/23 25/91/23 21/92/23
f 22/93/24 26/94/24 28/95/24 24/96/24
f 25/97/25 29/98/25 30/99/25 26/100/25
f 28/101/26 32/102/26 31/103/26 27/104/26
f 27/105/27 31/106/27 29/107/27 25/108/27
f 26/109/28 30/110/28 32/111/28 28/112/28
f 29/113/29 33/114/29 34/115/29 30/116/29
f 32/117/30 36/118/30 35/119/30 31/120/30
f 31/121/31 35/122/31 33/123/31 29/124/31
f 30/125/32 34/126/32 36/127/32 32/128/32
f 33/129/33 37/130/33 38/131/33 34/132/33
f 36/133/34 40/134/34 39/135/34 35/136/34
f 35/137/35 39/138/35 37/139/35 33/140/35
f 34/141/36 38/142/36 40/143/36 36/144/36
f 37/145/37 41/146/37 42/147/37 38/148/37
f 40/149/38 44/150/38 43/151/38 39/152/38
f 39/153/39 43/154/39 41/155/39 37/156/39
f 38/157/40 42/158/40 44/159/40 40/160/40
f 41/161/41 45/162/41 46/163/41 42/164/41
f 44/165/42 48/166/42 47/167/42 43/168/42
f 43/169/43 47/170/43 45/171/43 41/172/43
f 42/173/44 46/174/44 48/175/44 44/176/44
f 45/177/45 1/178/45 2/179/45 46/180/45
f 48/181/46 4/182/46 3/183/46 47/184/46
f 47/185/47 3/186/47 1/187/47 45/188/47
f 46/189/48 2/190/48 4/191/48 48/192/48